<?xml version="1.0" standalone="no"?>
<!DOCTYPE svg PUBLIC "-//W3C//DTD SVG 20010904//EN"
 "http://www.w3.org/TR/2001/REC-SVG-20010904/DTD/svg10.dtd">
<svg version="1.0" xmlns="http://www.w3.org/2000/svg"
 width="462.000000pt" height="462.000000pt" viewBox="0 0 462.000000 462.000000"
 preserveAspectRatio="xMidYMid meet">
<metadata>
Created by potrace 1.11, written by Peter Selinger 2001-2013
</metadata>
<g transform="translate(0.000000,462.000000) scale(0.100000,-0.100000)"
fill="#000000" stroke="none">
<path d="M2247 4614 c-1 -1 -47 -4 -102 -8 -55 -3 -111 -8 -125 -10 -14 -3
-43 -7 -65 -10 -22 -2 -74 -12 -115 -21 -41 -9 -86 -18 -100 -21 -54 -11 -296
-96 -367 -129 -41 -19 -77 -35 -79 -35 -24 0 -367 -217 -416 -262 -7 -7 -39
-35 -72 -62 -354 -298 -617 -728 -735 -1201 -19 -78 -22 -93 -36 -185 -4 -25
-9 -56 -11 -70 -4 -23 -12 -141 -18 -272 -2 -57 7 -71 30 -48 13 13 125 46
185 54 299 43 531 63 984 82 250 10 344 13 477 13 l126 1 18 48 c112 297 441
426 724 284 101 -50 210 -179 242 -284 6 -22 17 -42 22 -43 6 -2 130 -6 276
-9 370 -9 674 -23 876 -41 27 -3 79 -7 115 -10 58 -5 159 -16 271 -31 57 -8
197 -43 223 -56 11 -6 23 -16 27 -22 9 -14 11 5 8 104 -4 187 -16 281 -56 460
-207 918 -976 1624 -1916 1760 -98 15 -382 32 -391 24z"/>
<path d="M1617 2174 c-1 -1 -103 -5 -227 -9 -124 -4 -252 -8 -285 -10 -211
-11 -316 -16 -360 -20 -27 -2 -88 -6 -135 -10 -47 -3 -96 -8 -110 -10 -14 -2
-68 -9 -120 -15 -52 -6 -106 -13 -120 -16 -14 -2 -43 -7 -65 -10 -22 -3 -69
-16 -105 -28 l-65 -21 3 -40 c3 -48 36 -202 64 -300 79 -278 203 -525 387
-770 84 -110 270 -304 371 -385 36 -28 74 -59 84 -67 86 -70 393 -245 491
-281 17 -6 68 -25 115 -42 47 -17 92 -33 100 -35 8 -2 40 -10 70 -19 30 -8
100 -24 155 -35 93 -18 125 -23 245 -36 54 -7 343 -7 385 -1 17 2 61 7 100 11
38 3 72 8 75 10 3 1 28 6 55 9 95 13 326 78 440 125 157 64 454 234 547 313
15 13 42 34 60 47 60 45 283 275 350 361 220 285 378 626 443 955 33 168 33
173 -12 192 -41 17 -184 48 -273 58 -30 4 -67 9 -81 10 -28 4 -227 22 -319 29
-163 13 -379 24 -640 31 -428 13 -440 13 -440 2 0 -5 -16 -43 -35 -83 -82
-171 -251 -279 -442 -283 -136 -3 -264 46 -361 138 -64 60 -122 149 -144 221
-4 12 -24 15 -102 15 -54 0 -98 -1 -99 -1z"/>
</g>
</svg>
